<svg xmlns="http://www.w3.org/2000/svg" xmlns:xlink="http://www.w3.org/1999/xlink" width="500" zoomAndPan="magnify" viewBox="0 0 375 135.000003" height="180" preserveAspectRatio="xMidYMid meet" version="1.0"><defs><g/><clipPath id="eab54ae89c"><path d="M 330.308594 2.640625 L 373.378906 2.640625 L 373.378906 45.710938 L 330.308594 45.710938 Z M 330.308594 2.640625 " clip-rule="nonzero"/></clipPath></defs><g fill="#000000" fill-opacity="1"><g transform="translate(1.378672, 91.105193)"><g><path d="M 69.515625 0 L 41.34375 -77.421875 L 30.59375 -77.421875 L 1.09375 0 L 12.0625 0 L 20.71875 -23.6875 L 50.21875 -23.6875 L 58.671875 0 Z M 47.15625 -32.34375 L 24.015625 -32.34375 L 35.859375 -64.703125 Z M 47.15625 -32.34375 "/></g></g></g><g fill="#000000" fill-opacity="1"><g transform="translate(67.924794, 91.105193)"><g><path d="M 19.078125 -44.40625 L 28.40625 -44.40625 L 28.40625 -51.640625 L 19.078125 -51.640625 L 19.078125 -67.984375 L 10.09375 -67.984375 L 10.09375 -51.640625 L 1.75 -51.640625 L 1.75 -44.40625 L 10.09375 -44.40625 L 10.09375 -8.4375 C 10.09375 -2.515625 11.515625 0.875 20.0625 0.875 C 23.46875 0.875 27.640625 0.109375 28.40625 0 L 28.40625 -7.234375 C 25.984375 -6.359375 23.90625 -6.03125 22.921875 -6.03125 C 20.171875 -6.03125 19.078125 -7.453125 19.078125 -11.1875 Z M 19.078125 -44.40625 "/></g></g></g><g fill="#000000" fill-opacity="1"><g transform="translate(95.660706, 91.105193)"><g><path d="M 37.9375 -30.921875 L 30.046875 -30.375 C 23.46875 -29.9375 14.359375 -28.515625 9.09375 -24.5625 C 4.171875 -20.828125 3.515625 -15.796875 3.515625 -13.375 C 3.515625 -4.5 10.75 1.421875 21.046875 1.421875 C 31.03125 1.421875 36.296875 -4.390625 38.703125 -7.015625 C 38.8125 -5.484375 40.140625 -2.1875 42.21875 -0.65625 C 44.078125 0.65625 47.265625 0.65625 47.703125 0.65625 C 49.125 0.65625 50.65625 0.546875 53.296875 -0.328125 L 53.296875 -7.671875 C 52.3125 -7.453125 51.75 -7.234375 50.65625 -7.234375 C 46.828125 -7.234375 46.71875 -10.203125 46.71875 -13.265625 L 46.71875 -31.46875 C 46.71875 -40.6875 46.28125 -46.0625 38.921875 -50.21875 C 34.65625 -52.75 29.171875 -53.296875 25.984375 -53.296875 C 7.671875 -53.296875 6.140625 -38.8125 6.140625 -36.296875 L 15.25 -35.75 L 15.25 -36.515625 C 15.25 -42.984375 19.1875 -46.609375 26.421875 -46.609375 C 37.828125 -46.609375 37.9375 -37.5 37.9375 -32.671875 Z M 38.046875 -25.21875 L 38.046875 -21.15625 C 38.046875 -7.890625 27.640625 -5.921875 22.921875 -5.921875 C 16.015625 -5.921875 13.15625 -9.765625 13.15625 -13.59375 C 13.15625 -18.640625 17.875 -20.828125 19.515625 -21.5 C 23.578125 -23.25 34 -24.5625 38.046875 -25.21875 Z M 38.046875 -25.21875 "/></g></g></g><g fill="#000000" fill-opacity="1"><g transform="translate(146.200352, 91.105193)"><g><path d="M 16.015625 -67.328125 L 16.015625 -77.421875 L 7.5625 -77.421875 L 7.5625 -67.328125 Z M 16.015625 0 L 16.015625 -51.640625 L 7.5625 -51.640625 L 7.5625 0 Z M 16.015625 0 "/></g></g></g><g fill="#000000" fill-opacity="1"><g transform="translate(164.72705, 91.105193)"><g><path d="M 54.5 0 L 54.5 -77.421875 L 45.734375 -77.421875 L 45.734375 -44.84375 C 43.859375 -47.8125 37.390625 -53.296875 27.96875 -53.296875 C 17.4375 -53.296875 4.28125 -46.0625 4.28125 -25.984375 C 4.28125 -9.984375 12.9375 1.640625 28.078125 1.640625 C 38.265625 1.640625 43.09375 -3.515625 45.734375 -6.578125 L 45.734375 0 Z M 13.703125 -25.65625 C 13.703125 -35.421875 18.203125 -45.28125 30.046875 -45.28125 C 39.8125 -45.28125 45.953125 -37.171875 45.953125 -26.53125 C 45.953125 -10.75 37.5 -6.140625 29.828125 -6.140625 C 17.328125 -6.140625 13.703125 -16.5625 13.703125 -25.65625 Z M 13.703125 -25.65625 "/></g></g></g><g fill="#000000" fill-opacity="1"><g transform="translate(222.063993, 91.105193)"><g><path d="M 13.703125 -24.234375 L 52.96875 -24.234375 L 52.96875 -25.65625 C 52.96875 -45.734375 40.578125 -53.296875 29.28125 -53.296875 C 18.53125 -53.296875 4.28125 -45.953125 4.28125 -26.3125 C 4.28125 -5.921875 16.890625 1.640625 29.609375 1.640625 C 46.9375 1.640625 51.75 -12.171875 52.96875 -15.796875 L 44.078125 -17 C 42.984375 -12.28125 39.578125 -4.9375 30.484375 -4.9375 C 18.09375 -4.9375 13.703125 -15.578125 13.703125 -23.578125 Z M 13.921875 -30.59375 C 14.6875 -38.8125 19.296875 -46.5 28.625 -46.5 C 37.390625 -46.5 43.421875 -39.140625 43.421875 -30.59375 Z M 13.921875 -30.59375 "/></g></g></g><g fill="#000000" fill-opacity="1"><g transform="translate(274.905943, 91.105193)"><g><path d="M 3.40625 -16.671875 C 4.9375 -6.578125 10.75 1.640625 27.421875 1.640625 C 39.703125 1.640625 49.015625 -4.828125 49.015625 -14.6875 C 49.015625 -24.125 41.453125 -27.421875 31.796875 -29.71875 L 26.75 -30.921875 C 18.859375 -32.78125 14.25 -34.546875 14.25 -39.03125 C 14.25 -42.328125 17.328125 -46.609375 24.453125 -46.609375 C 31.90625 -46.609375 36.1875 -42.875 37.5 -40.03125 C 38.046875 -38.8125 38.15625 -37.71875 38.265625 -35.203125 L 47.703125 -36.296875 C 47.484375 -37.828125 47.046875 -41.015625 44.953125 -44.1875 C 42.4375 -47.921875 36.515625 -53.296875 25.65625 -53.296875 C 16.34375 -53.296875 5.59375 -49.234375 5.59375 -37.9375 C 5.59375 -30.703125 9.875 -25.65625 24.015625 -22.921875 L 29.0625 -21.9375 C 33.78125 -21.046875 39.8125 -19.953125 39.8125 -13.703125 C 39.8125 -6.359375 32.125 -5.046875 27.859375 -5.046875 C 23.578125 -5.046875 19.296875 -5.59375 16.234375 -8.984375 C 13.703125 -11.734375 13.375 -14.6875 13.375 -18.09375 Z M 3.40625 -16.671875 "/></g></g></g><g fill="#000000" fill-opacity="1"><g transform="translate(323.143308, 91.105193)"><g><path d="M 17.875 0 L 17.875 -12.390625 L 7.015625 -12.390625 L 7.015625 0 Z M 17.875 0 "/></g></g></g><g clip-path="url(#eab54ae89c)"><path fill="#e82511" d="M 373.597656 2.640625 L 373.597656 24.289062 L 351.949219 2.640625 Z M 330.308594 2.640625 L 351.949219 24.289062 L 351.949219 2.640625 Z M 373.597656 45.929688 L 373.597656 24.289062 L 351.949219 24.289062 Z M 351.949219 45.929688 L 351.949219 24.289062 L 330.308594 24.289062 Z M 351.949219 45.929688 " fill-opacity="1" fill-rule="nonzero"/></g></svg>