<?xml version="1.0" encoding="utf-8"?>
<!-- Generator: Adobe Illustrator 27.5.0, SVG Export Plug-In . SVG Version: 6.00 Build 0)  -->
<svg version="1.1" xmlns="http://www.w3.org/2000/svg" xmlns:xlink="http://www.w3.org/1999/xlink" x="0px" y="0px"
	 viewBox="0 0 500 500" style="enable-background:new 0 0 500 500;" xml:space="preserve">
<g id="BACKGROUND">
	<rect style="fill:#FFFFFF;" width="500" height="500"/>
</g>
<g id="OBJECTS_00000070108147261705115400000005265141444086748317_">
	<g>
		<defs>
			<rect id="SVGID_1_" width="500" height="500"/>
		</defs>
		<clipPath id="SVGID_00000072238441435393659360000011222155775044534931_">
			<use xlink:href="#SVGID_1_"  style="overflow:visible;"/>
		</clipPath>
		
			<ellipse transform="matrix(0.7071 -0.7071 0.7071 0.7071 -106.7119 282.7211)" style="opacity:0.62;clip-path:url(#SVGID_00000072238441435393659360000011222155775044534931_);fill:#E7EDF2;" cx="287.919" cy="270.173" rx="167.539" ry="167.539"/>
		<g style="clip-path:url(#SVGID_00000072238441435393659360000011222155775044534931_);">
			<line style="fill:none;stroke:#A8C5E2;stroke-miterlimit:10;" x1="118.185" y1="239" x2="118.185" y2="98.547"/>
			<line style="fill:none;stroke:#A8C5E2;stroke-miterlimit:10;" x1="170.977" y1="95.568" x2="258.946" y2="95.568"/>
			<g>
				<path style="fill:#87A1CF;" d="M439.28,350.698c13.075,36.135,4.054,165.772,4.054,165.772l-134.028-4.808
					c0,0,0.507-133.858,29.436-166.98C367.672,311.56,439.28,350.698,439.28,350.698z"/>
				<path style="fill:none;stroke:#536C7F;stroke-linecap:round;stroke-miterlimit:10;" d="M429.622,354.518
					c11.647,61.005-5.921,161.952-5.921,161.952"/>
				<path style="fill:#5A2402;" d="M326.6,150.049c-0.148-0.592-0.446-1.162-0.724-1.713c-2.631-5.228-3.919-11.125-3.708-16.974
					c0.516-14.289,14.978-13.087,25.67-10.296c-0.829-1.768-0.454-3.93,0.581-5.587c2.952-4.726,11.809-8.032,16.983-9.853
					c6.321-2.225,14.43-1.373,20.89-0.248c12.604,2.195,26.248,8.19,33.408,19.309c9.868,15.324,15.299,31.062,4.074,42.994
					c-11.225,11.932-8.328,22.406,11.587,26.66c19.915,4.255,22.088,20.292,0,29.784c-15.661,6.73-35.688,4.775-52.101,2.665
					c-9.206-1.184-18.398-2.906-27.311-5.522c-3.674-1.078-7.353-2.275-10.848-3.852c-4.684-2.113-4.189-3.435-6.688-7.484
					c-3.562-5.771-9.991-9.057-14.711-13.926c-5.41-5.579-8.47-13.368-8.306-21.137s3.551-15.422,9.191-20.768
					c0.939-0.89,2.008-1.857,2.101-3.147C326.711,150.647,326.674,150.345,326.6,150.049z"/>
				<path style="fill:none;stroke:#AF7E62;stroke-linecap:round;stroke-miterlimit:10;" d="M422,169.704
					c-17.398,20.45-4.1,30.177-4.1,30.177"/>
				<path style="fill:none;stroke:#AF7E62;stroke-linecap:round;stroke-miterlimit:10;" d="M326.6,150.049
					c2.311,4.843,5.467,7.326,5.467,7.326"/>
				<path style="fill:#FCA695;" d="M344.447,206.079c45.157-9.662,71.478-1.182,71.478-1.182s30.708,113.902,23.355,145.802H331.666
					l-0.432-51.616C334.788,307.009,310.931,249.57,344.447,206.079z"/>
				<path style="opacity:0.57;fill:#FCA695;" d="M424.796,276.077c-3.181,23.565-33.607,44.243-33.607,44.243l55.178-6.933
					L424.796,276.077z"/>
				<path style="fill:#FFFFFF;" d="M356.564,203.831c-10.074,4.528,0.678,8.584,0.678,8.584s-7.465,10.715,0,16.364
					c7.465,5.649,13.064-2.225,13.064-2.225s3.725,6.247,10.874,4.988c7.149-1.259,7.149-9.961,7.149-9.961
					s4.953,5.802,11.593,1.243c6.641-4.559,2.05-12.432,2.05-12.432s5.157,2.552,7.077-2.072S388.774,189.354,356.564,203.831z"/>
				<g>
					<g>
						<g>
							<path style="fill:#F9D5BF;" d="M365.171,198.621c0,0,0-0.279,0,8.681c0,8.96,4.533,13.421,16.008,9.65
								c7.476-2.457,11.078-8.487,11.078-13.973c0-5.485,0.351-31.5,0.351-31.5l-27.396,22.388L365.171,198.621z"/>
							<path style="fill:#FCA695;" d="M384.665,177.971c-1.514,15.366-9.747,25.008-19.483,25.008
								c-0.01-0.133-0.01-0.276-0.01-0.409v-28.011L384.665,177.971z"/>
						</g>
						<path style="fill:#F9D5BF;" d="M334.836,143.023c-4.644,14.936-0.694,35.125,7.851,43.825c8.546,8.7,20.19,10.743,29.587,5.84
							c9.397-4.903,18.789-13.881,22.471-22.057c3.682-8.176,3.122-27.106-2.32-35.619c-5.443-8.513-22.333-10.502-32.887-10.324
							C348.986,124.865,341.114,129.926,334.836,143.023z"/>
						<path style="fill:#5A2402;" d="M348.528,154.479c0,1.671-0.849,3.025-1.896,3.025c-1.047,0-1.897-1.354-1.897-3.025
							c0-1.671,0.849-3.025,1.897-3.025C347.679,151.454,348.528,152.808,348.528,154.479z"/>
						<path style="fill:#5A2402;" d="M370.305,154.479c0,1.671-0.849,3.025-1.897,3.025c-1.048,0-1.897-1.354-1.897-3.025
							c0-1.671,0.849-3.025,1.897-3.025C369.456,151.454,370.305,152.808,370.305,154.479z"/>
						<path style="fill:#5A2402;" d="M365.211,140.663c4.513-1.923,11.51,0.318,12.163,3.243c0.653,2.925-0.49,4.387-1.796,4.387
							c-1.306,0-4.486-3.725-10.613-2.194C362.798,146.641,361.208,142.369,365.211,140.663z"/>
						<path style="fill:#5A2402;" d="M350.749,140.663c-3.757-1.923-9.583,0.318-10.127,3.243c-0.544,2.925,0.408,4.387,1.496,4.387
							c1.088,0,3.736-3.725,8.837-2.194C352.758,146.641,354.082,142.369,350.749,140.663z"/>
						<path style="fill:none;stroke:#DB7665;stroke-width:0.75;stroke-linecap:round;stroke-miterlimit:10;" d="M356.327,152.221
							c0.392,6.799-1.516,11.492-2.68,13.675c-0.363,0.682,0.065,1.513,0.833,1.589c1.984,0.197,5.178,0.394,6.486-0.197"/>
						<path style="fill:#FFFFFF;" d="M359.539,172.861c3.926-0.535,10.882-3.926,10.616-4.462c0,0,1.061,5.427-3.416,6.434
							C362.262,175.841,359.539,172.861,359.539,172.861z"/>
						<g>
							<path style="fill:#F9D5BF;" d="M391.189,159.101c4.313-8.512,11.501-8.773,13.658-3.398
								c2.157,5.375-2.336,16.363-10.423,17.159"/>
							<path style="fill:#FCA695;" d="M400.874,157.726c1.591,0.937,2.997,4.193-0.629,7.227c-3.626,3.034-7.273,2.729-7.273,2.729
								s-0.617-4.234,1.69-6.674C396.969,158.567,399.801,157.012,400.874,157.726z"/>
							<path style="fill:none;stroke:#DB7665;stroke-width:0.75;stroke-linecap:round;stroke-miterlimit:10;" d="M393.705,162.482
								c3.774-6.436,7.548-5.358,8.267-3.741"/>
							<path style="fill:none;stroke:#DB7665;stroke-width:0.75;stroke-linecap:round;stroke-miterlimit:10;" d="M395.847,159.993
								c2.89-0.893,3.07,2.949,1.992,3.904"/>
						</g>
						<path style="fill:none;stroke:#DB7665;stroke-width:0.75;stroke-linecap:round;stroke-miterlimit:10;" d="M365.171,195.523
							c15.641-3.662,23.202-14.86,26.018-20.965"/>
					</g>
					<path style="fill:#FCA695;" d="M365.905,176.967c1.301-0.005,4.811-2.614,5.235-1.75c0.424,0.863-0.864,2.703-2.13,3.551
						C367.744,179.617,364.604,176.972,365.905,176.967z"/>
					<ellipse style="fill:#FCA695;" cx="377.235" cy="160.817" rx="3.944" ry="3.08"/>
					<path style="fill:#FCA695;" d="M346.632,160.817c0,1.701-1.766,3.08-3.945,3.08c-2.178,0-3.944-1.379-3.944-3.08
						s1.766-3.08,3.944-3.08C344.866,157.737,346.632,159.116,346.632,160.817z"/>
				</g>
				<path style="fill:#5A2402;" d="M350.222,125.624c8.236,23.552,41.087,22.669,41.087,22.669l-1.432,11.567
					c0,0,5.666-7.664,8.689-7.583c0,0,6.694-27.648-9.67-31.903C372.531,116.119,350.222,125.624,350.222,125.624z"/>
				<path style="fill:none;stroke:#AF7E62;stroke-linecap:round;stroke-miterlimit:10;" d="M350.222,125.624
					c4.073,16.743,30.958,23.324,41.087,22.669l-1.432,11.567"/>
				<g>
					<path style="fill:#F9D5BF;" d="M361.941,328.873l-8.849,1.456c0,0-22.403-8.233-24.144-8.273
						c-1.741-0.041-2.626,6.817,5.56,9.914c8.186,3.097,8.747,3.285,8.747,3.285s-34.443,5.779-33.943,9.964
						c0.5,4.185,21.922-0.86,21.922-0.86s-21.062,4.425-21.062,7.743c0,3.319,20.133,0,20.133,0s-16.593,3.319-16.372,6.195
						c0.221,2.876,17.301,1.328,17.301,1.328s-11.107,0.442-11.107,3.54c0,3.097,46.475-2.358,46.475-2.358L361.941,328.873z"/>
					
						<line style="fill:none;stroke:#DB7665;stroke-width:0.75;stroke-linecap:round;stroke-miterlimit:10;" x1="318.231" y1="347.457" x2="329.878" y2="344.682"/>
					
						<line style="fill:none;stroke:#DB7665;stroke-width:0.75;stroke-linecap:round;stroke-miterlimit:10;" x1="323.347" y1="353.275" x2="331.666" y2="351.608"/>
					
						<line style="fill:none;stroke:#DB7665;stroke-width:0.75;stroke-linecap:round;stroke-miterlimit:10;" x1="327.115" y1="359.803" x2="335.639" y2="358.215"/>
					<path style="fill:none;stroke:#DB7665;stroke-width:0.75;stroke-linecap:round;stroke-miterlimit:10;" d="M329.878,343.086
						c0.595,11.536,7.384,16.718,7.384,16.718"/>
				</g>
				<g>
					<path style="fill:#F9D5BF;" d="M218.214,210.804l-5.887-6.766c0,0-4.76-23.389-5.639-24.891
						c-0.879-1.503-7.18,1.346-5.517,9.939c1.663,8.592,1.798,9.169,1.798,9.169s-23.007-26.275-26.305-23.652
						c-3.299,2.624,12.245,18.204,12.245,18.204s-14.827-15.6-17.651-13.857c-2.824,1.743,10.573,17.133,10.573,17.133
						s-11.538-12.377-13.87-10.679c-2.331,1.699,7.957,15.42,7.957,15.42s-6.21-9.219-8.845-7.592
						c-2.636,1.627,26.415,38.312,26.415,38.312L218.214,210.804z"/>
					
						<line style="fill:none;stroke:#DB7665;stroke-width:0.75;stroke-linecap:round;stroke-miterlimit:10;" x1="179.443" y1="183.367" x2="187.921" y2="191.821"/>
					<path style="fill:none;stroke:#DB7665;stroke-width:0.75;stroke-linecap:round;stroke-miterlimit:10;" d="M202.968,198.254
						c-4.468,7.665-2.186,14.161-2.186,14.161"/>
					
						<line style="fill:none;stroke:#DB7665;stroke-width:0.75;stroke-linecap:round;stroke-miterlimit:10;" x1="177.179" y1="190.777" x2="182.967" y2="196.98"/>
					
						<line style="fill:none;stroke:#DB7665;stroke-width:0.75;stroke-linecap:round;stroke-miterlimit:10;" x1="179.431" y1="203.831" x2="173.602" y2="197.411"/>
				</g>
				<path style="fill:#FCA695;" d="M415.926,204.896c19.591,2.434,42.045,14.417,50.98,58.874
					c6.135,30.523,16.919,70.617-1.312,81.901s-101.006,15.24-101.006,15.24l-4.495-34.766l69.53-17.043l-13.109-80.71"/>
				<path style="fill:#FCA695;" d="M344.447,206.079c-13.576,1.569-77.365,62.849-77.365,62.849s-38.736-50.264-48.868-60.879
					l-26.051,22.76c0,0,30.081,60.604,38.431,73.494c15.951,24.625,35.696,30.583,53.701,22.863
					c18.004-7.72,65.927-58.72,65.927-58.72L344.447,206.079z"/>
				<path style="fill:none;stroke:#DB7665;stroke-linecap:round;stroke-miterlimit:10;" d="M322.851,237.005
					c-3.773,34.476,9.216,59.454,9.216,59.454"/>
				<path style="fill:none;stroke:#DB7665;stroke-linecap:round;stroke-miterlimit:10;" d="M267.082,268.927
					c4.967,13.06,6.932,27.532,6.932,27.532"/>
				<path style="fill:none;stroke:#DB7665;stroke-linecap:round;stroke-miterlimit:10;" d="M424.363,239.628
					c-3.018,30.637,5.259,69.475,5.259,69.475s10.824,9.55,10.824,17.19"/>
				<path style="fill:none;stroke:#DB7665;stroke-linecap:round;stroke-miterlimit:10;" d="M429.622,309.103
					c-30.448,7.463-69.53,17.043-69.53,17.043"/>
			</g>
			<path style="fill:#9BB0C4;" d="M141.647,288.459c0,2.183-1.769,3.952-3.952,3.952c-2.182,0-3.952-1.769-3.952-3.952
				c0-2.182,1.769-3.952,3.952-3.952C139.877,284.507,141.647,286.276,141.647,288.459z"/>
			<g>
				<rect x="64.54" y="353.116" style="fill:#87A1CF;" width="199.61" height="173.124"/>
				<g>
					<path style="fill:#BBCADB;" d="M238.361,360.569H54.377c-2.333,0-4.225-1.891-4.225-4.225v-31.801
						c0-2.333,1.891-4.225,4.225-4.225h183.984c2.333,0,4.225,1.891,4.225,4.225v31.801
						C242.586,358.678,240.694,360.569,238.361,360.569z"/>
					<path style="fill:#D2DFEE;" d="M269.789,360.569H85.806c-2.333,0-4.225-1.891-4.225-4.225v-31.801
						c0-2.333,1.891-4.225,4.225-4.225h183.984c2.333,0,4.225,1.891,4.225,4.225v31.801
						C274.014,358.678,272.123,360.569,269.789,360.569z"/>
					<path style="fill:#87A1CF;" d="M175.16,354.518H91.102c-1.457,0-2.638-1.181-2.638-2.638v-22.873
						c0-1.457,1.181-2.638,2.638-2.638h84.058c1.457,0,2.638,1.181,2.638,2.638v22.873
						C177.798,353.338,176.617,354.518,175.16,354.518z"/>
					<rect x="98.767" y="332.086" style="fill:#D2DFEE;" width="50.446" height="6.451"/>
					<rect x="98.767" y="342.353" style="fill:#D2DFEE;" width="50.446" height="6.451"/>
					<path style="fill:#BBCADB;" d="M203.244,337.93h-15.176c-0.458,0-0.83-0.371-0.83-0.83V327.2c0-0.458,0.372-0.83,0.83-0.83
						h15.176c0.458,0,0.83,0.371,0.83,0.83v9.901C204.073,337.559,203.702,337.93,203.244,337.93z"/>
					<path style="fill:#BBCADB;" d="M228.016,337.93H212.84c-0.458,0-0.83-0.371-0.83-0.83V327.2c0-0.458,0.371-0.83,0.83-0.83
						h15.176c0.458,0,0.83,0.371,0.83,0.83v9.901C228.845,337.559,228.474,337.93,228.016,337.93z"/>
					<path style="fill:#BBCADB;" d="M252.788,337.93h-15.176c-0.458,0-0.83-0.371-0.83-0.83V327.2c0-0.458,0.371-0.83,0.83-0.83
						h15.176c0.458,0,0.83,0.371,0.83,0.83v9.901C253.617,337.559,253.246,337.93,252.788,337.93z"/>
					<path style="fill:#BBCADB;" d="M203.244,354.518h-15.176c-0.458,0-0.83-0.371-0.83-0.83v-9.901c0-0.458,0.372-0.83,0.83-0.83
						h15.176c0.458,0,0.83,0.371,0.83,0.83v9.901C204.073,354.147,203.702,354.518,203.244,354.518z"/>
					<path style="fill:#BBCADB;" d="M228.016,354.518H212.84c-0.458,0-0.83-0.371-0.83-0.83v-9.901c0-0.458,0.371-0.83,0.83-0.83
						h15.176c0.458,0,0.83,0.371,0.83,0.83v9.901C228.845,354.147,228.474,354.518,228.016,354.518z"/>
					<path style="fill:#BBCADB;" d="M252.788,354.518h-15.176c-0.458,0-0.83-0.371-0.83-0.83v-9.901c0-0.458,0.371-0.83,0.83-0.83
						h15.176c0.458,0,0.83,0.371,0.83,0.83v9.901C253.617,354.147,253.246,354.518,252.788,354.518z"/>
					
						<line style="fill:none;stroke:#536C7F;stroke-linecap:round;stroke-miterlimit:10;" x1="113.127" y1="360.569" x2="269.789" y2="360.569"/>
				</g>
				<g>
					<path style="fill:#BBCADB;" d="M238.361,406.088H54.377c-2.333,0-4.225-1.891-4.225-4.225v-31.801
						c0-2.333,1.891-4.225,4.225-4.225h183.984c2.333,0,4.225,1.891,4.225,4.225v31.801
						C242.586,404.197,240.694,406.088,238.361,406.088z"/>
					<path style="fill:#D2DFEE;" d="M269.789,406.088H85.806c-2.333,0-4.225-1.891-4.225-4.225v-31.801
						c0-2.333,1.891-4.225,4.225-4.225h183.984c2.333,0,4.225,1.891,4.225,4.225v31.801
						C274.014,404.197,272.123,406.088,269.789,406.088z"/>
					<path style="fill:#87A1CF;" d="M175.16,400.037H91.102c-1.457,0-2.638-1.181-2.638-2.638v-22.873
						c0-1.457,1.181-2.638,2.638-2.638h84.058c1.457,0,2.638,1.181,2.638,2.638V397.4
						C177.798,398.856,176.617,400.037,175.16,400.037z"/>
					<rect x="98.767" y="377.604" style="fill:#D2DFEE;" width="50.446" height="6.451"/>
					<rect x="98.767" y="387.871" style="fill:#D2DFEE;" width="50.446" height="6.451"/>
					<path style="fill:#BBCADB;" d="M203.244,383.449h-15.176c-0.458,0-0.83-0.371-0.83-0.83v-9.901c0-0.458,0.372-0.83,0.83-0.83
						h15.176c0.458,0,0.83,0.371,0.83,0.83v9.901C204.073,383.078,203.702,383.449,203.244,383.449z"/>
					<path style="fill:#BBCADB;" d="M228.016,383.449H212.84c-0.458,0-0.83-0.371-0.83-0.83v-9.901c0-0.458,0.371-0.83,0.83-0.83
						h15.176c0.458,0,0.83,0.371,0.83,0.83v9.901C228.845,383.078,228.474,383.449,228.016,383.449z"/>
					<path style="fill:#BBCADB;" d="M252.788,383.449h-15.176c-0.458,0-0.83-0.371-0.83-0.83v-9.901c0-0.458,0.371-0.83,0.83-0.83
						h15.176c0.458,0,0.83,0.371,0.83,0.83v9.901C253.617,383.078,253.246,383.449,252.788,383.449z"/>
					<path style="fill:#BBCADB;" d="M203.244,400.037h-15.176c-0.458,0-0.83-0.371-0.83-0.83v-9.901c0-0.458,0.372-0.83,0.83-0.83
						h15.176c0.458,0,0.83,0.371,0.83,0.83v9.901C204.073,399.666,203.702,400.037,203.244,400.037z"/>
					<path style="fill:#BBCADB;" d="M228.016,400.037H212.84c-0.458,0-0.83-0.371-0.83-0.83v-9.901c0-0.458,0.371-0.83,0.83-0.83
						h15.176c0.458,0,0.83,0.371,0.83,0.83v9.901C228.845,399.666,228.474,400.037,228.016,400.037z"/>
					<path style="fill:#BBCADB;" d="M252.788,400.037h-15.176c-0.458,0-0.83-0.371-0.83-0.83v-9.901c0-0.458,0.371-0.83,0.83-0.83
						h15.176c0.458,0,0.83,0.371,0.83,0.83v9.901C253.617,399.666,253.246,400.037,252.788,400.037z"/>
					
						<line style="fill:none;stroke:#536C7F;stroke-linecap:round;stroke-miterlimit:10;" x1="113.127" y1="406.088" x2="269.789" y2="406.088"/>
				</g>
				<g>
					<path style="fill:#BBCADB;" d="M238.361,451.607H54.377c-2.333,0-4.225-1.891-4.225-4.225v-31.801
						c0-2.333,1.891-4.225,4.225-4.225h183.984c2.333,0,4.225,1.891,4.225,4.225v31.801
						C242.586,449.716,240.694,451.607,238.361,451.607z"/>
					<path style="fill:#D2DFEE;" d="M269.789,451.607H85.806c-2.333,0-4.225-1.891-4.225-4.225v-31.801
						c0-2.333,1.891-4.225,4.225-4.225h183.984c2.333,0,4.225,1.891,4.225,4.225v31.801
						C274.014,449.716,272.123,451.607,269.789,451.607z"/>
					<path style="fill:#87A1CF;" d="M175.16,445.556H91.102c-1.457,0-2.638-1.181-2.638-2.638v-22.873
						c0-1.457,1.181-2.638,2.638-2.638h84.058c1.457,0,2.638,1.181,2.638,2.638v22.873
						C177.798,444.375,176.617,445.556,175.16,445.556z"/>
					<rect x="98.767" y="423.123" style="fill:#D2DFEE;" width="50.446" height="6.451"/>
					<rect x="98.767" y="433.39" style="fill:#D2DFEE;" width="50.446" height="6.451"/>
					<path style="fill:#BBCADB;" d="M203.244,428.968h-15.176c-0.458,0-0.83-0.371-0.83-0.83v-9.901c0-0.458,0.372-0.83,0.83-0.83
						h15.176c0.458,0,0.83,0.371,0.83,0.83v9.901C204.073,428.597,203.702,428.968,203.244,428.968z"/>
					<path style="fill:#BBCADB;" d="M228.016,428.968H212.84c-0.458,0-0.83-0.371-0.83-0.83v-9.901c0-0.458,0.371-0.83,0.83-0.83
						h15.176c0.458,0,0.83,0.371,0.83,0.83v9.901C228.845,428.597,228.474,428.968,228.016,428.968z"/>
					<path style="fill:#BBCADB;" d="M252.788,428.968h-15.176c-0.458,0-0.83-0.371-0.83-0.83v-9.901c0-0.458,0.371-0.83,0.83-0.83
						h15.176c0.458,0,0.83,0.371,0.83,0.83v9.901C253.617,428.597,253.246,428.968,252.788,428.968z"/>
					<path style="fill:#BBCADB;" d="M203.244,445.556h-15.176c-0.458,0-0.83-0.372-0.83-0.83v-9.901c0-0.458,0.372-0.83,0.83-0.83
						h15.176c0.458,0,0.83,0.371,0.83,0.83v9.901C204.073,445.185,203.702,445.556,203.244,445.556z"/>
					<path style="fill:#BBCADB;" d="M228.016,445.556H212.84c-0.458,0-0.83-0.372-0.83-0.83v-9.901c0-0.458,0.371-0.83,0.83-0.83
						h15.176c0.458,0,0.83,0.371,0.83,0.83v9.901C228.845,445.185,228.474,445.556,228.016,445.556z"/>
					<path style="fill:#BBCADB;" d="M252.788,445.556h-15.176c-0.458,0-0.83-0.372-0.83-0.83v-9.901c0-0.458,0.371-0.83,0.83-0.83
						h15.176c0.458,0,0.83,0.371,0.83,0.83v9.901C253.617,445.185,253.246,445.556,252.788,445.556z"/>
					
						<line style="fill:none;stroke:#536C7F;stroke-linecap:round;stroke-miterlimit:10;" x1="113.127" y1="451.607" x2="269.789" y2="451.607"/>
				</g>
				<g>
					<path style="fill:#BBCADB;" d="M238.361,497.126H54.377c-2.333,0-4.225-1.891-4.225-4.225V461.1
						c0-2.333,1.891-4.225,4.225-4.225h183.984c2.333,0,4.225,1.891,4.225,4.225v31.801
						C242.586,495.234,240.694,497.126,238.361,497.126z"/>
					<path style="fill:#D2DFEE;" d="M269.789,497.126H85.806c-2.333,0-4.225-1.891-4.225-4.225V461.1
						c0-2.333,1.891-4.225,4.225-4.225h183.984c2.333,0,4.225,1.891,4.225,4.225v31.801
						C274.014,495.234,272.123,497.126,269.789,497.126z"/>
					<path style="fill:#87A1CF;" d="M175.16,491.075H91.102c-1.457,0-2.638-1.181-2.638-2.638v-22.873
						c0-1.457,1.181-2.638,2.638-2.638h84.058c1.457,0,2.638,1.181,2.638,2.638v22.873
						C177.798,489.894,176.617,491.075,175.16,491.075z"/>
					<rect x="98.767" y="468.642" style="fill:#D2DFEE;" width="50.446" height="6.451"/>
					<rect x="98.767" y="478.909" style="fill:#D2DFEE;" width="50.446" height="6.451"/>
					<path style="fill:#BBCADB;" d="M203.244,474.487h-15.176c-0.458,0-0.83-0.371-0.83-0.83v-9.901c0-0.458,0.372-0.83,0.83-0.83
						h15.176c0.458,0,0.83,0.371,0.83,0.83v9.901C204.073,474.115,203.702,474.487,203.244,474.487z"/>
					<path style="fill:#BBCADB;" d="M228.016,474.487H212.84c-0.458,0-0.83-0.371-0.83-0.83v-9.901c0-0.458,0.371-0.83,0.83-0.83
						h15.176c0.458,0,0.83,0.371,0.83,0.83v9.901C228.845,474.115,228.474,474.487,228.016,474.487z"/>
					<path style="fill:#BBCADB;" d="M252.788,474.487h-15.176c-0.458,0-0.83-0.371-0.83-0.83v-9.901c0-0.458,0.371-0.83,0.83-0.83
						h15.176c0.458,0,0.83,0.371,0.83,0.83v9.901C253.617,474.115,253.246,474.487,252.788,474.487z"/>
					<path style="fill:#BBCADB;" d="M203.244,491.075h-15.176c-0.458,0-0.83-0.371-0.83-0.83v-9.901c0-0.458,0.372-0.829,0.83-0.829
						h15.176c0.458,0,0.83,0.371,0.83,0.829v9.901C204.073,490.704,203.702,491.075,203.244,491.075z"/>
					<path style="fill:#BBCADB;" d="M228.016,491.075H212.84c-0.458,0-0.83-0.371-0.83-0.83v-9.901c0-0.458,0.371-0.829,0.83-0.829
						h15.176c0.458,0,0.83,0.371,0.83,0.829v9.901C228.845,490.704,228.474,491.075,228.016,491.075z"/>
					<path style="fill:#BBCADB;" d="M252.788,491.075h-15.176c-0.458,0-0.83-0.371-0.83-0.83v-9.901c0-0.458,0.371-0.829,0.83-0.829
						h15.176c0.458,0,0.83,0.371,0.83,0.829v9.901C253.617,490.704,253.246,491.075,252.788,491.075z"/>
					
						<line style="fill:none;stroke:#536C7F;stroke-linecap:round;stroke-miterlimit:10;" x1="113.127" y1="497.126" x2="269.789" y2="497.126"/>
				</g>
			</g>
			
				<line style="fill:none;stroke:#536C7F;stroke-linecap:round;stroke-miterlimit:10;" x1="77.332" y1="320.319" x2="201.059" y2="320.319"/>
			<g>
				<g>
					<path style="fill:#A2B8CC;" d="M188.098,314.14H72.332l-20.671-65.948c-1.138-3.631,1.574-7.323,5.379-7.323h99.961
						c4.838,0,9.116,3.142,10.563,7.758L188.098,314.14z"/>
					<path style="fill:#BCCCDD;" d="M193.098,314.14H77.332l-20.671-65.948c-1.138-3.631,1.574-7.323,5.379-7.323h99.961
						c4.838,0,9.116,3.142,10.563,7.758L193.098,314.14z"/>
					<polygon style="fill:#FFFFFF;" points="180.933,301.482 81.901,301.482 64.54,246.165 163.571,246.165 					"/>
					<path style="fill:#A2B8CC;" d="M182.823,313.386H70.495c-0.949,0-1.719,0.77-1.719,1.719v3.495c0,0.949,0.77,1.719,1.719,1.719
						h112.327c0.949,0,1.719-0.77,1.719-1.719v-3.495C184.542,314.156,183.772,313.386,182.823,313.386z"/>
					<path style="fill:#BCCCDD;" d="M199.34,313.386H87.013c-0.949,0-1.719,0.77-1.719,1.719v3.495c0,0.949,0.77,1.719,1.719,1.719
						H199.34c0.949,0,1.719-0.77,1.719-1.719v-3.495C201.059,314.156,200.29,313.386,199.34,313.386z"/>
					
						<line style="fill:none;stroke:#536C7F;stroke-linecap:round;stroke-miterlimit:10;" x1="77.332" y1="314.14" x2="193.098" y2="314.14"/>
					<path style="fill:none;stroke:#536C7F;stroke-linecap:round;stroke-miterlimit:10;" d="M99.212,240.87H59.173
						c-2.615,0-4.471,2.55-3.667,5.038L70.11,291.1"/>
				</g>
				<g>
					<path style="fill:#E2EAF2;" d="M146.579,262.614H89.79c-1.554,0-2.915-1.042-3.321-2.542l0,0
						c-0.592-2.188,1.055-4.34,3.321-4.34h56.789c1.554,0,2.915,1.042,3.321,2.542l0,0
						C150.493,260.461,148.846,262.614,146.579,262.614z"/>
					<path style="fill:#E2EAF2;" d="M152.385,275.345H95.595c-1.554,0-2.915-1.042-3.321-2.542l0,0
						c-0.592-2.187,1.055-4.34,3.321-4.34h56.789c1.554,0,2.915,1.042,3.321,2.542l0,0
						C156.298,273.192,154.651,275.345,152.385,275.345z"/>
					<path style="fill:#E2EAF2;" d="M158.19,288.075H101.4c-1.554,0-2.915-1.042-3.321-2.542l0,0
						c-0.592-2.188,1.055-4.34,3.321-4.34h56.789c1.554,0,2.915,1.042,3.321,2.542l0,0
						C162.103,285.922,160.456,288.075,158.19,288.075z"/>
				</g>
			</g>
			<g>
				<rect x="76.961" y="93.511" style="fill:#87A1CF;" width="89.835" height="18.702"/>
				
					<ellipse transform="matrix(0.1602 -0.9871 0.9871 0.1602 25.9317 187.1128)" style="fill:#87A1CF;" cx="122.928" cy="78.317" rx="30.223" ry="30.223"/>
				<circle style="fill:#87A1CF;" cx="76.96" cy="92.506" r="19.706"/>
				
					<ellipse transform="matrix(0.2298 -0.9732 0.9732 0.2298 31.8987 233.7301)" style="fill:#87A1CF;" cx="163.615" cy="96.712" rx="15.5" ry="15.5"/>
				
					<line style="fill:none;stroke:#536C7F;stroke-linecap:round;stroke-miterlimit:10;" x1="76.961" y1="112.213" x2="168.831" y2="112.213"/>
				<path style="fill:none;stroke:#536C7F;stroke-linecap:round;stroke-miterlimit:10;" d="M95.546,65.523
					c-4.065,8.813-2.841,21.771-2.841,21.771"/>
				<path style="fill:none;stroke:#536C7F;stroke-linecap:round;stroke-miterlimit:10;" d="M148.114,96.712
					c0.707-10.714,9.904-14.455,9.904-14.455"/>
			</g>
			<g>
				<g>
					<path style="fill:#E2EAF2;" d="M378.026,86.433c14.362,1.423,26.337-10.552,24.914-24.914
						c-1.053-10.628-9.65-19.225-20.278-20.278c-14.362-1.423-26.337,10.552-24.914,24.914
						C358.802,76.784,367.398,85.38,378.026,86.433z M378.469,54.388c6.776-1.283,12.62,4.571,11.32,11.35
						c-0.727,3.787-3.787,6.836-7.576,7.55c-6.777,1.277-12.598-4.576-11.3-11.352C371.636,58.154,374.686,55.104,378.469,54.388z"
						/>
					<g>
						<path style="fill:#E2EAF2;" d="M377.992,83.971h5.065c1.24,0,2.245,1.005,2.245,2.245v7.795c0,1.24-1.005,2.245-2.245,2.245
							h-5.065c-1.24,0-2.245-1.005-2.245-2.245v-7.795C375.747,84.976,376.752,83.971,377.992,83.971z"/>
						<path style="fill:#E2EAF2;" d="M392.917,79.738l3.582-3.581c0.877-0.877,2.298-0.877,3.175,0l5.512,5.512
							c0.877,0.877,0.877,2.298,0,3.175l-3.581,3.582c-0.877,0.877-2.298,0.877-3.175,0l-5.512-5.512
							C392.041,82.036,392.041,80.614,392.917,79.738z"/>
						<path style="fill:#E2EAF2;" d="M400.478,66.19v-5.065c0-1.24,1.005-2.245,2.245-2.245h7.795c1.24,0,2.245,1.005,2.245,2.245
							v5.065c0,1.24-1.005,2.245-2.245,2.245h-7.795C401.483,68.435,400.478,67.43,400.478,66.19z"/>
						<path style="fill:#E2EAF2;" d="M396.245,51.264l-3.582-3.582c-0.877-0.877-0.877-2.298,0-3.175l5.512-5.512
							c0.877-0.877,2.298-0.877,3.175,0l3.582,3.582c0.877,0.877,0.877,2.298,0,3.175l-5.512,5.512
							C398.543,52.141,397.121,52.141,396.245,51.264z"/>
						<path style="fill:#E2EAF2;" d="M382.697,43.704h-5.065c-1.24,0-2.245-1.005-2.245-2.245v-7.795
							c0-1.24,1.005-2.245,2.245-2.245h5.065c1.24,0,2.245,1.005,2.245,2.245v7.795C384.942,42.699,383.937,43.704,382.697,43.704z"
							/>
						<path style="fill:#E2EAF2;" d="M367.772,47.937l-3.582,3.582c-0.877,0.877-2.298,0.877-3.175,0l-5.512-5.512
							c-0.877-0.877-0.877-2.298,0-3.175l3.581-3.582c0.877-0.877,2.298-0.877,3.175,0l5.512,5.512
							C368.648,45.639,368.648,47.061,367.772,47.937z"/>
						<path style="fill:#E2EAF2;" d="M360.211,61.485v5.065c0,1.24-1.005,2.245-2.245,2.245h-7.795c-1.24,0-2.245-1.005-2.245-2.245
							v-5.065c0-1.24,1.005-2.245,2.245-2.245h7.795C359.206,59.24,360.211,60.245,360.211,61.485z"/>
						<path style="fill:#E2EAF2;" d="M364.444,76.41l3.581,3.582c0.877,0.877,0.877,2.298,0,3.175l-5.512,5.512
							c-0.877,0.877-2.298,0.877-3.175,0l-3.581-3.581c-0.877-0.877-0.877-2.298,0-3.175l5.512-5.512
							C362.146,75.534,363.568,75.534,364.444,76.41z"/>
					</g>
				</g>
				<g>
					<path style="fill:#E2EAF2;" d="M420.702,94.286h2.922c0.117,0,0.234-0.017,0.34-0.05c0.267,1.23,0.763,2.377,1.442,3.395
						c-0.089,0.056-0.173,0.117-0.25,0.195l-2.065,2.065c-0.484,0.49-0.484,1.28,0,1.77l1.213,1.213c0.49,0.49,1.28,0.49,1.77,0
						l2.065-2.065c0.083-0.083,0.156-0.184,0.206-0.284c1.03,0.668,2.187,1.147,3.423,1.397c-0.028,0.1-0.039,0.201-0.039,0.306
						v2.922c0,0.69,0.557,1.247,1.247,1.247h1.714c0.69,0,1.252-0.557,1.252-1.247v-2.922c0-0.117-0.017-0.234-0.05-0.345
						c1.236-0.262,2.382-0.757,3.401-1.436c0.05,0.089,0.117,0.173,0.189,0.25l2.065,2.065c0.49,0.484,1.28,0.484,1.77,0
						l1.214-1.213c0.484-0.49,0.484-1.28,0-1.77l-2.065-2.065c-0.083-0.083-0.178-0.156-0.278-0.211
						c0.662-1.024,1.141-2.182,1.386-3.417c0.1,0.028,0.206,0.039,0.312,0.039h2.922c0.69,0,1.247-0.557,1.247-1.247v-1.714
						c0-0.69-0.557-1.252-1.247-1.252h-2.922c-0.117,0-0.234,0.017-0.339,0.05c-0.267-1.23-0.763-2.377-1.442-3.395
						c0.089-0.056,0.173-0.117,0.251-0.195l2.065-2.065c0.484-0.49,0.484-1.28,0-1.77l-1.213-1.213c-0.49-0.49-1.28-0.49-1.77,0
						l-2.065,2.065c-0.083,0.084-0.156,0.184-0.206,0.284c-1.03-0.668-2.187-1.146-3.423-1.397c0.028-0.1,0.039-0.2,0.039-0.306
						v-2.922c0-0.69-0.557-1.247-1.247-1.247h-1.714c-0.69,0-1.252,0.557-1.252,1.247v2.922c0,0.117,0.017,0.234,0.05,0.345
						c-1.236,0.261-2.382,0.757-3.401,1.436c-0.05-0.089-0.117-0.173-0.189-0.25l-2.065-2.065c-0.49-0.484-1.28-0.484-1.77,0
						l-1.213,1.213c-0.49,0.49-0.49,1.28,0,1.77l2.065,2.065c0.083,0.084,0.178,0.156,0.278,0.212
						c-0.662,1.024-1.141,2.182-1.386,3.417c-0.1-0.028-0.206-0.039-0.312-0.039h-2.922c-0.69,0-1.247,0.557-1.247,1.247v1.714
						C419.455,93.724,420.012,94.286,420.702,94.286z M429.59,91.258c0.323-1.664,1.664-3.011,3.334-3.328
						c2.989-0.568,5.572,2.015,4.993,5.009c-0.317,1.67-1.67,3.011-3.34,3.328C431.589,96.829,429.023,94.247,429.59,91.258z"/>
				</g>
			</g>
			<g>
				<circle style="fill:#76A87E;" cx="118.185" cy="171.958" r="15.415"/>
				<polyline style="fill:none;stroke:#FFFFFF;stroke-width:2;stroke-miterlimit:10;" points="109.857,171.958 116.907,177.632 
					125.982,168.372 				"/>
			</g>
			<g>
				<g>
					<path style="fill:#BCCCDD;" d="M295.57,78.998h-36.619V67.585c0-10.097,8.213-18.31,18.309-18.31s18.31,8.213,18.31,18.31
						V78.998z M262.507,75.442h29.507v-7.858c0-8.136-6.618-14.754-14.754-14.754s-14.753,6.618-14.753,14.754V75.442z"/>
				</g>
				<g>
					<path style="fill:#BCCCDD;" d="M304.344,123.79h-54.168c-3.534,0-6.4-2.865-6.4-6.4V79.076c0-3.534,2.865-6.4,6.4-6.4h54.168
						c3.534,0,6.4,2.865,6.4,6.4v38.315C310.744,120.925,307.879,123.79,304.344,123.79z"/>
				</g>
				<path style="fill:none;stroke:#536C7F;stroke-linecap:round;stroke-miterlimit:10;" d="M251.727,72.676h53.701
					c2.936,0,5.316,2.38,5.316,5.315v33.414"/>
				<g>
					<g>
						<path style="fill:#FFFFFF;" d="M281.87,91.755c0,2.546-2.064,4.61-4.61,4.61c-2.546,0-4.61-2.064-4.61-4.61
							c0-2.546,2.064-4.61,4.61-4.61C279.806,87.145,281.87,89.209,281.87,91.755z"/>
					</g>
					<g>
						<polygon style="fill:#FFFFFF;" points="281.596,106.651 272.924,106.651 275.295,93.55 279.226,93.55 						"/>
					</g>
				</g>
			</g>
			<g>
				<rect x="59.803" y="128.569" style="fill:#E2EAF2;" width="32.349" height="8.724"/>
				<rect x="52.244" y="142.142" style="fill:#BCCCDD;" width="39.908" height="8.724"/>
				<rect x="69.531" y="155.716" style="fill:#E2EAF2;" width="22.621" height="8.724"/>
				<rect x="76.989" y="169.29" style="fill:#E2EAF2;" width="15.163" height="8.724"/>
			</g>
			<g>
				<rect x="223.655" y="133.656" style="fill:#E2EAF2;" width="64.264" height="11.507"/>
				<rect x="223.655" y="151.621" style="fill:#E2EAF2;" width="40.834" height="11.507"/>
			</g>
			<g>
				<circle style="fill:#76A87E;" cx="208.512" cy="95.568" r="15.415"/>
				<polyline style="fill:none;stroke:#FFFFFF;stroke-width:2;stroke-miterlimit:10;" points="200.185,95.568 207.235,101.242 
					216.309,91.982 				"/>
			</g>
		</g>
	</g>
</g>
</svg>
