<svg xmlns="http://www.w3.org/2000/svg" xmlns:xlink="http://www.w3.org/1999/xlink" width="500" zoomAndPan="magnify" viewBox="0 0 375 374.999991" height="500" preserveAspectRatio="xMidYMid meet" version="1.0"><defs><g/><clipPath id="37eb20c58d"><path d="M 269.5625 150.515625 L 294.3125 150.515625 L 294.3125 175.265625 L 269.5625 175.265625 Z M 269.5625 150.515625 " clip-rule="nonzero"/></clipPath></defs><g fill="#000000" fill-opacity="1"><g transform="translate(80.548953, 201.34945)"><g><path d="M 39.953125 0 L 23.75 -44.484375 L 17.578125 -44.484375 L 0.625 0 L 6.9375 0 L 11.90625 -13.609375 L 28.859375 -13.609375 L 33.71875 0 Z M 27.09375 -18.59375 L 13.796875 -18.59375 L 20.609375 -37.171875 Z M 27.09375 -18.59375 "/></g></g></g><g fill="#000000" fill-opacity="1"><g transform="translate(118.788403, 201.34945)"><g><path d="M 10.96875 -25.515625 L 16.328125 -25.515625 L 16.328125 -29.6875 L 10.96875 -29.6875 L 10.96875 -39.0625 L 5.796875 -39.0625 L 5.796875 -29.6875 L 1.015625 -29.6875 L 1.015625 -25.515625 L 5.796875 -25.515625 L 5.796875 -4.859375 C 5.796875 -1.453125 6.609375 0.5 11.53125 0.5 C 13.484375 0.5 15.875 0.0625 16.328125 0 L 16.328125 -4.15625 C 14.9375 -3.65625 13.734375 -3.46875 13.171875 -3.46875 C 11.59375 -3.46875 10.96875 -4.28125 10.96875 -6.421875 Z M 10.96875 -25.515625 "/></g></g></g><g fill="#000000" fill-opacity="1"><g transform="translate(134.726311, 201.34945)"><g><path d="M 21.796875 -17.765625 L 17.265625 -17.453125 C 13.484375 -17.203125 8.25 -16.390625 5.234375 -14.109375 C 2.390625 -11.96875 2.015625 -9.078125 2.015625 -7.6875 C 2.015625 -2.578125 6.171875 0.8125 12.09375 0.8125 C 17.828125 0.8125 20.859375 -2.515625 22.25 -4.03125 C 22.3125 -3.15625 23.0625 -1.265625 24.265625 -0.375 C 25.328125 0.375 27.15625 0.375 27.40625 0.375 C 28.234375 0.375 29.109375 0.3125 30.625 -0.1875 L 30.625 -4.40625 C 30.0625 -4.28125 29.75 -4.15625 29.109375 -4.15625 C 26.90625 -4.15625 26.84375 -5.859375 26.84375 -7.625 L 26.84375 -18.078125 C 26.84375 -23.375 26.59375 -26.46875 22.375 -28.859375 C 19.90625 -30.3125 16.765625 -30.625 14.9375 -30.625 C 4.40625 -30.625 3.53125 -22.3125 3.53125 -20.859375 L 8.765625 -20.546875 L 8.765625 -20.984375 C 8.765625 -24.703125 11.03125 -26.78125 15.1875 -26.78125 C 21.734375 -26.78125 21.796875 -21.546875 21.796875 -18.78125 Z M 21.859375 -14.5 L 21.859375 -12.15625 C 21.859375 -4.53125 15.875 -3.40625 13.171875 -3.40625 C 9.203125 -3.40625 7.5625 -5.609375 7.5625 -7.8125 C 7.5625 -10.71875 10.265625 -11.96875 11.21875 -12.34375 C 13.546875 -13.359375 19.53125 -14.109375 21.859375 -14.5 Z M 21.859375 -14.5 "/></g></g></g><g fill="#000000" fill-opacity="1"><g transform="translate(163.767948, 201.34945)"><g><path d="M 9.203125 -38.6875 L 9.203125 -44.484375 L 4.34375 -44.484375 L 4.34375 -38.6875 Z M 9.203125 0 L 9.203125 -29.6875 L 4.34375 -29.6875 L 4.34375 0 Z M 9.203125 0 "/></g></g></g><g fill="#000000" fill-opacity="1"><g transform="translate(174.413959, 201.34945)"><g><path d="M 31.3125 0 L 31.3125 -44.484375 L 26.28125 -44.484375 L 26.28125 -25.765625 C 25.203125 -27.46875 21.484375 -30.625 16.0625 -30.625 C 10.015625 -30.625 2.453125 -26.46875 2.453125 -14.9375 C 2.453125 -5.734375 7.4375 0.9375 16.125 0.9375 C 22 0.9375 24.765625 -2.015625 26.28125 -3.78125 L 26.28125 0 Z M 7.875 -14.75 C 7.875 -20.359375 10.453125 -26.03125 17.265625 -26.03125 C 22.875 -26.03125 26.40625 -21.359375 26.40625 -15.25 C 26.40625 -6.171875 21.546875 -3.53125 17.140625 -3.53125 C 9.953125 -3.53125 7.875 -9.515625 7.875 -14.75 Z M 7.875 -14.75 "/></g></g></g><g fill="#000000" fill-opacity="1"><g transform="translate(207.361531, 201.34945)"><g><path d="M 7.875 -13.921875 L 30.4375 -13.921875 L 30.4375 -14.75 C 30.4375 -26.28125 23.3125 -30.625 16.828125 -30.625 C 10.65625 -30.625 2.453125 -26.40625 2.453125 -15.125 C 2.453125 -3.40625 9.703125 0.9375 17.015625 0.9375 C 26.96875 0.9375 29.75 -7 30.4375 -9.078125 L 25.328125 -9.765625 C 24.703125 -7.0625 22.75 -2.828125 17.515625 -2.828125 C 10.390625 -2.828125 7.875 -8.953125 7.875 -13.546875 Z M 8 -17.578125 C 8.4375 -22.3125 11.09375 -26.71875 16.453125 -26.71875 C 21.484375 -26.71875 24.953125 -22.5 24.953125 -17.578125 Z M 8 -17.578125 "/></g></g></g><g fill="#000000" fill-opacity="1"><g transform="translate(237.726142, 201.34945)"><g><path d="M 1.953125 -9.578125 C 2.828125 -3.78125 6.171875 0.9375 15.75 0.9375 C 22.8125 0.9375 28.171875 -2.765625 28.171875 -8.4375 C 28.171875 -13.859375 23.8125 -15.75 18.28125 -17.078125 L 15.375 -17.765625 C 10.84375 -18.84375 8.1875 -19.84375 8.1875 -22.4375 C 8.1875 -24.328125 9.953125 -26.78125 14.046875 -26.78125 C 18.34375 -26.78125 20.796875 -24.640625 21.546875 -23 C 21.859375 -22.3125 21.921875 -21.671875 22 -20.234375 L 27.40625 -20.859375 C 27.28125 -21.734375 27.03125 -23.5625 25.84375 -25.390625 C 24.390625 -27.53125 20.984375 -30.625 14.75 -30.625 C 9.390625 -30.625 3.21875 -28.296875 3.21875 -21.796875 C 3.21875 -17.640625 5.671875 -14.75 13.796875 -13.171875 L 16.703125 -12.609375 C 19.40625 -12.09375 22.875 -11.46875 22.875 -7.875 C 22.875 -3.65625 18.46875 -2.90625 16 -2.90625 C 13.546875 -2.90625 11.09375 -3.21875 9.328125 -5.171875 C 7.875 -6.75 7.6875 -8.4375 7.6875 -10.390625 Z M 1.953125 -9.578125 "/></g></g></g><g fill="#000000" fill-opacity="1"><g transform="translate(265.444817, 201.34945)"><g><path d="M 10.265625 0 L 10.265625 -7.125 L 4.03125 -7.125 L 4.03125 0 Z M 10.265625 0 "/></g></g></g><g clip-path="url(#37eb20c58d)"><path fill="#e82511" d="M 294.4375 150.515625 L 294.4375 162.953125 L 281.996094 150.515625 Z M 269.5625 150.515625 L 281.996094 162.953125 L 281.996094 150.515625 Z M 294.4375 175.390625 L 294.4375 162.953125 L 281.996094 162.953125 Z M 281.996094 175.390625 L 281.996094 162.953125 L 269.5625 162.953125 Z M 281.996094 175.390625 " fill-opacity="1" fill-rule="nonzero"/></g></svg>